<?xml version="1.0" encoding="us-ascii" standalone="no"?><svg xmlns="http://www.w3.org/2000/svg" xmlns:xlink="http://www.w3.org/1999/xlink" contentStyleType="text/css" height="527px" preserveAspectRatio="none" style="width:1367px;height:527px;background:#FFFFFF;" version="1.1" viewBox="0 0 1367 527" width="1367px" zoomAndPan="magnify"><defs/><g><text fill="#000000" font-family="sans-serif" font-size="14" font-weight="bold" lengthAdjust="spacing" textLength="99.25" x="632.375" y="34.9659">Life of a Tasks</text><rect fill="#F1F1F1" height="36.3441" rx="12.5" ry="12.5" style="stroke:#181818;stroke-width:0.5;" width="71" x="745" y="51.0679"/><text fill="#000000" font-family="sans-serif" font-size="12" lengthAdjust="spacing" textLength="51" x="755" y="73.896">incoming</text><path d="M843.5,111.7311 L843.5,121.5841 L823.5,125.5841 L843.5,129.5841 L843.5,139.4371 A0,0 0 0 0 843.5,139.4371 L1075.5,139.4371 A0,0 0 0 0 1075.5,139.4371 L1075.5,121.7311 L1065.5,111.7311 L843.5,111.7311 A0,0 0 0 0 843.5,111.7311 " fill="#FEFFDD" style="stroke:#181818;stroke-width:0.5;"/><path d="M1065.5,111.7311 L1065.5,121.7311 L1075.5,121.7311 L1065.5,111.7311 " fill="#FEFFDD" style="stroke:#181818;stroke-width:0.5;"/><text fill="#000000" font-family="sans-serif" font-size="13" lengthAdjust="spacing" textLength="211" x="849.5" y="130.6281">Capture as much details as possible</text><rect fill="#F1F1F1" height="36.3441" rx="12.5" ry="12.5" style="stroke:#181818;stroke-width:0.5;" width="86" x="737.5" y="107.412"/><text fill="#000000" font-family="sans-serif" font-size="12" lengthAdjust="spacing" textLength="66" x="747.5" y="130.2401">org-capture</text><polygon fill="#F1F1F1" points="741,163.7561,820,163.7561,832,175.7561,820,187.7561,741,187.7561,729,175.7561,741,163.7561" style="stroke:#181818;stroke-width:0.5;"/><text fill="#000000" font-family="sans-serif" font-size="11" lengthAdjust="spacing" textLength="79" x="741" y="180.0241">require action?</text><text fill="#000000" font-family="sans-serif" font-size="11" lengthAdjust="spacing" textLength="17" x="712" y="172.5332">yes</text><text fill="#000000" font-family="sans-serif" font-size="11" lengthAdjust="spacing" textLength="14" x="832" y="172.5332">no</text><path d="M208.75,197.7561 L208.75,225.4622 L260.75,225.4622 L260.75,207.7561 L250.75,197.7561 L208.75,197.7561 " fill="#FEFFDD" style="stroke:#181818;stroke-width:0.5;"/><path d="M250.75,197.7561 L250.75,207.7561 L260.75,207.7561 L250.75,197.7561 " fill="#FEFFDD" style="stroke:#181818;stroke-width:0.5;"/><text fill="#000000" font-family="sans-serif" font-size="13" lengthAdjust="spacing" textLength="31" x="214.75" y="216.6532">tasks</text><polygon fill="#F1F1F1" points="272.75,225.4622,390.75,225.4622,402.75,237.4622,390.75,249.4622,272.75,249.4622,260.75,237.4622,272.75,225.4622" style="stroke:#181818;stroke-width:0.5;"/><text fill="#000000" font-family="sans-serif" font-size="11" lengthAdjust="spacing" textLength="118" x="272.75" y="241.7301">more than one action?</text><text fill="#000000" font-family="sans-serif" font-size="11" lengthAdjust="spacing" textLength="17" x="243.75" y="234.2392">yes</text><text fill="#000000" font-family="sans-serif" font-size="11" lengthAdjust="spacing" textLength="14" x="402.75" y="234.2392">no</text><path d="M90,263.7812 L90,273.6342 L70,277.6342 L90,281.6342 L90,291.4872 A0,0 0 0 0 90,291.4872 L276,291.4872 A0,0 0 0 0 276,291.4872 L276,273.7812 L266,263.7812 L90,263.7812 A0,0 0 0 0 90,263.7812 " fill="#FEFFDD" style="stroke:#181818;stroke-width:0.5;"/><path d="M266,263.7812 L266,273.7812 L276,273.7812 L266,263.7812 " fill="#FEFFDD" style="stroke:#181818;stroke-width:0.5;"/><text fill="#000000" font-family="sans-serif" font-size="13" lengthAdjust="spacing" textLength="165" x="96" y="282.6782">will have separate sub tasks</text><rect fill="#F1F1F1" height="36.3441" rx="12.5" ry="12.5" style="stroke:#181818;stroke-width:0.5;" width="59" x="11" y="259.4622"/><text fill="#000000" font-family="sans-serif" font-size="12" lengthAdjust="spacing" textLength="39" x="21" y="282.2903">project</text><rect fill="#F1F1F1" height="36.3441" rx="12.5" ry="12.5" style="stroke:#181818;stroke-width:0.5;" width="142" x="532" y="259.4622"/><text fill="#000000" font-family="sans-serif" font-size="12" lengthAdjust="spacing" textLength="122" x="542" y="282.2903">determine next action</text><polygon fill="#F1F1F1" points="522.5,322.1003,683.5,322.1003,695.5,334.1003,683.5,346.1003,522.5,346.1003,510.5,334.1003,522.5,322.1003" style="stroke:#181818;stroke-width:0.5;"/><text fill="#000000" font-family="sans-serif" font-size="11" lengthAdjust="spacing" textLength="161" x="522.5" y="338.3682">will it takes less than 2 minutes</text><text fill="#000000" font-family="sans-serif" font-size="11" lengthAdjust="spacing" textLength="17" x="493.5" y="330.8773">yes</text><text fill="#000000" font-family="sans-serif" font-size="11" lengthAdjust="spacing" textLength="14" x="695.5" y="330.8773">no</text><rect fill="#F1F1F1" height="36.3441" rx="12.5" ry="12.5" style="stroke:#181818;stroke-width:0.5;" width="173" x="306" y="356.1003"/><text fill="#000000" font-family="sans-serif" font-size="12" lengthAdjust="spacing" textLength="153" x="316" y="378.9283">do it now and mark it DONE</text><polygon fill="#F1F1F1" points="767.5,356.1003,899.5,356.1003,911.5,368.1003,899.5,380.1003,767.5,380.1003,755.5,368.1003,767.5,356.1003" style="stroke:#181818;stroke-width:0.5;"/><text fill="#000000" font-family="sans-serif" font-size="11" lengthAdjust="spacing" textLength="132" x="767.5" y="372.3682">can it be done by myself?</text><text fill="#000000" font-family="sans-serif" font-size="11" lengthAdjust="spacing" textLength="17" x="738.5" y="364.8773">yes</text><text fill="#000000" font-family="sans-serif" font-size="11" lengthAdjust="spacing" textLength="14" x="911.5" y="364.8773">no</text><path d="M489,394.4193 L489,422.1253 A0,0 0 0 0 489,422.1253 L673,422.1253 A0,0 0 0 0 673,422.1253 L673,412.4193 L693,408.2723 L673,404.4193 L673,404.4193 L663,394.4193 L489,394.4193 A0,0 0 0 0 489,394.4193 " fill="#FEFFDD" style="stroke:#181818;stroke-width:0.5;"/><path d="M663,394.4193 L663,404.4193 L673,404.4193 L663,394.4193 " fill="#FEFFDD" style="stroke:#181818;stroke-width:0.5;"/><text fill="#000000" font-family="sans-serif" font-size="13" lengthAdjust="spacing" textLength="163" x="495" y="413.3163">do other high priority tasks</text><rect fill="#F1F1F1" height="36.3441" rx="12.5" ry="12.5" style="stroke:#181818;stroke-width:0.5;" width="60" x="693" y="390.1003"/><text fill="#000000" font-family="sans-serif" font-size="12" lengthAdjust="spacing" textLength="40" x="703" y="412.9283">defer it</text><polygon fill="#F1F1F1" points="634.5,446.4444,811.5,446.4444,823.5,458.4444,811.5,470.4444,634.5,470.4444,622.5,458.4444,634.5,446.4444" style="stroke:#181818;stroke-width:0.5;"/><text fill="#000000" font-family="sans-serif" font-size="11" lengthAdjust="spacing" textLength="177" x="634.5" y="462.7123">should it be done at specific time?</text><text fill="#000000" font-family="sans-serif" font-size="11" lengthAdjust="spacing" textLength="17" x="605.5" y="455.2214">yes</text><text fill="#000000" font-family="sans-serif" font-size="11" lengthAdjust="spacing" textLength="14" x="823.5" y="455.2214">no</text><rect fill="#F1F1F1" height="36.3441" rx="12.5" ry="12.5" style="stroke:#181818;stroke-width:0.5;" width="149" x="538" y="480.4444"/><text fill="#000000" font-family="sans-serif" font-size="12" lengthAdjust="spacing" textLength="129" x="548" y="503.2725">schedule it mark TODO</text><rect fill="#F1F1F1" height="36.3441" rx="12.5" ry="12.5" style="stroke:#181818;stroke-width:0.5;" width="92" x="787.5" y="480.4444"/><text fill="#000000" font-family="sans-serif" font-size="12" lengthAdjust="spacing" textLength="72" x="797.5" y="503.2725">mark it NEXT</text><rect fill="#F1F1F1" height="36.3441" rx="12.5" ry="12.5" style="stroke:#181818;stroke-width:0.5;" width="69" x="909.5" y="390.1003"/><text fill="#000000" font-family="sans-serif" font-size="12" lengthAdjust="spacing" textLength="49" x="919.5" y="412.9283">delegate</text><polygon fill="#F1F1F1" points="1208.25,197.7561,1290.25,197.7561,1302.25,209.7561,1290.25,221.7561,1208.25,221.7561,1196.25,209.7561,1208.25,197.7561" style="stroke:#181818;stroke-width:0.5;"/><text fill="#000000" font-family="sans-serif" font-size="11" lengthAdjust="spacing" textLength="82" x="1208.25" y="214.0241">worth keeping?</text><text fill="#000000" font-family="sans-serif" font-size="11" lengthAdjust="spacing" textLength="17" x="1179.25" y="206.5332">yes</text><text fill="#000000" font-family="sans-serif" font-size="11" lengthAdjust="spacing" textLength="14" x="1302.25" y="206.5332">no</text><polygon fill="#F1F1F1" points="1116.5,231.7561,1217.5,231.7561,1229.5,243.7561,1217.5,255.7561,1116.5,255.7561,1104.5,243.7561,1116.5,231.7561" style="stroke:#181818;stroke-width:0.5;"/><text fill="#000000" font-family="sans-serif" font-size="11" lengthAdjust="spacing" textLength="101" x="1116.5" y="248.0241">require action later</text><text fill="#000000" font-family="sans-serif" font-size="11" lengthAdjust="spacing" textLength="17" x="1087.5" y="240.5332">yes</text><text fill="#000000" font-family="sans-serif" font-size="11" lengthAdjust="spacing" textLength="14" x="1229.5" y="240.5332">no</text><rect fill="#F1F1F1" height="36.3441" rx="12.5" ry="12.5" style="stroke:#181818;stroke-width:0.5;" width="92" x="1048.5" y="265.7561"/><text fill="#000000" font-family="sans-serif" font-size="12" lengthAdjust="spacing" textLength="72" x="1058.5" y="288.5842">mark it NEXT</text><rect fill="#F1F1F1" height="36.3441" rx="12.5" ry="12.5" style="stroke:#181818;stroke-width:0.5;" width="75" x="1202" y="265.7561"/><text fill="#000000" font-family="sans-serif" font-size="12" lengthAdjust="spacing" textLength="55" x="1212" y="288.5842">reference</text><rect fill="#F1F1F1" height="36.3441" rx="12.5" ry="12.5" style="stroke:#181818;stroke-width:0.5;" width="49" x="1307" y="231.7561"/><text fill="#000000" font-family="sans-serif" font-size="12" lengthAdjust="spacing" textLength="29" x="1317" y="254.5842">trash</text><line style="stroke:#181818;stroke-width:1.0;" x1="780.5" x2="780.5" y1="87.412" y2="107.412"/><polygon fill="#181818" points="776.5,97.412,780.5,107.412,784.5,97.412,780.5,101.412" style="stroke:#181818;stroke-width:1.0;"/><line style="stroke:#181818;stroke-width:1.0;" x1="622.5" x2="612.5" y1="458.4444" y2="458.4444"/><line style="stroke:#181818;stroke-width:1.0;" x1="612.5" x2="612.5" y1="458.4444" y2="480.4444"/><polygon fill="#181818" points="608.5,470.4444,612.5,480.4444,616.5,470.4444,612.5,474.4444" style="stroke:#181818;stroke-width:1.0;"/><line style="stroke:#181818;stroke-width:1.0;" x1="823.5" x2="833.5" y1="458.4444" y2="458.4444"/><line style="stroke:#181818;stroke-width:1.0;" x1="833.5" x2="833.5" y1="458.4444" y2="480.4444"/><polygon fill="#181818" points="829.5,470.4444,833.5,480.4444,837.5,470.4444,833.5,474.4444" style="stroke:#181818;stroke-width:1.0;"/><line style="stroke:#181818;stroke-width:1.0;" x1="723" x2="723" y1="426.4444" y2="446.4444"/><polygon fill="#181818" points="719,436.4444,723,446.4444,727,436.4444,723,440.4444" style="stroke:#181818;stroke-width:1.0;"/><line style="stroke:#181818;stroke-width:1.0;" x1="755.5" x2="723" y1="368.1003" y2="368.1003"/><line style="stroke:#181818;stroke-width:1.0;" x1="723" x2="723" y1="368.1003" y2="390.1003"/><polygon fill="#181818" points="719,380.1003,723,390.1003,727,380.1003,723,384.1003" style="stroke:#181818;stroke-width:1.0;"/><line style="stroke:#181818;stroke-width:1.0;" x1="911.5" x2="944" y1="368.1003" y2="368.1003"/><line style="stroke:#181818;stroke-width:1.0;" x1="944" x2="944" y1="368.1003" y2="390.1003"/><polygon fill="#181818" points="940,380.1003,944,390.1003,948,380.1003,944,384.1003" style="stroke:#181818;stroke-width:1.0;"/><line style="stroke:#181818;stroke-width:1.0;" x1="510.5" x2="392.5" y1="334.1003" y2="334.1003"/><line style="stroke:#181818;stroke-width:1.0;" x1="392.5" x2="392.5" y1="334.1003" y2="356.1003"/><polygon fill="#181818" points="388.5,346.1003,392.5,356.1003,396.5,346.1003,392.5,350.1003" style="stroke:#181818;stroke-width:1.0;"/><line style="stroke:#181818;stroke-width:1.0;" x1="695.5" x2="833.5" y1="334.1003" y2="334.1003"/><line style="stroke:#181818;stroke-width:1.0;" x1="833.5" x2="833.5" y1="334.1003" y2="356.1003"/><polygon fill="#181818" points="829.5,346.1003,833.5,356.1003,837.5,346.1003,833.5,350.1003" style="stroke:#181818;stroke-width:1.0;"/><line style="stroke:#181818;stroke-width:1.0;" x1="603" x2="603" y1="295.8063" y2="322.1003"/><polygon fill="#181818" points="599,312.1003,603,322.1003,607,312.1003,603,316.1003" style="stroke:#181818;stroke-width:1.0;"/><line style="stroke:#181818;stroke-width:1.0;" x1="260.75" x2="40.5" y1="237.4622" y2="237.4622"/><line style="stroke:#181818;stroke-width:1.0;" x1="40.5" x2="40.5" y1="237.4622" y2="259.4622"/><polygon fill="#181818" points="36.5,249.4622,40.5,259.4622,44.5,249.4622,40.5,253.4622" style="stroke:#181818;stroke-width:1.0;"/><line style="stroke:#181818;stroke-width:1.0;" x1="402.75" x2="603" y1="237.4622" y2="237.4622"/><line style="stroke:#181818;stroke-width:1.0;" x1="603" x2="603" y1="237.4622" y2="259.4622"/><polygon fill="#181818" points="599,249.4622,603,259.4622,607,249.4622,603,253.4622" style="stroke:#181818;stroke-width:1.0;"/><line style="stroke:#181818;stroke-width:1.0;" x1="1104.5" x2="1094.5" y1="243.7561" y2="243.7561"/><line style="stroke:#181818;stroke-width:1.0;" x1="1094.5" x2="1094.5" y1="243.7561" y2="265.7561"/><polygon fill="#181818" points="1090.5,255.7561,1094.5,265.7561,1098.5,255.7561,1094.5,259.7561" style="stroke:#181818;stroke-width:1.0;"/><line style="stroke:#181818;stroke-width:1.0;" x1="1229.5" x2="1239.5" y1="243.7561" y2="243.7561"/><line style="stroke:#181818;stroke-width:1.0;" x1="1239.5" x2="1239.5" y1="243.7561" y2="265.7561"/><polygon fill="#181818" points="1235.5,255.7561,1239.5,265.7561,1243.5,255.7561,1239.5,259.7561" style="stroke:#181818;stroke-width:1.0;"/><line style="stroke:#181818;stroke-width:1.0;" x1="1196.25" x2="1167" y1="209.7561" y2="209.7561"/><line style="stroke:#181818;stroke-width:1.0;" x1="1167" x2="1167" y1="209.7561" y2="231.7561"/><polygon fill="#181818" points="1163,221.7561,1167,231.7561,1171,221.7561,1167,225.7561" style="stroke:#181818;stroke-width:1.0;"/><line style="stroke:#181818;stroke-width:1.0;" x1="1302.25" x2="1331.5" y1="209.7561" y2="209.7561"/><line style="stroke:#181818;stroke-width:1.0;" x1="1331.5" x2="1331.5" y1="209.7561" y2="231.7561"/><polygon fill="#181818" points="1327.5,221.7561,1331.5,231.7561,1335.5,221.7561,1331.5,225.7561" style="stroke:#181818;stroke-width:1.0;"/><line style="stroke:#181818;stroke-width:1.0;" x1="729" x2="331.75" y1="175.7561" y2="175.7561"/><line style="stroke:#181818;stroke-width:1.0;" x1="331.75" x2="331.75" y1="175.7561" y2="225.4622"/><polygon fill="#181818" points="327.75,215.4622,331.75,225.4622,335.75,215.4622,331.75,219.4622" style="stroke:#181818;stroke-width:1.0;"/><line style="stroke:#181818;stroke-width:1.0;" x1="832" x2="1249.25" y1="175.7561" y2="175.7561"/><line style="stroke:#181818;stroke-width:1.0;" x1="1249.25" x2="1249.25" y1="175.7561" y2="197.7561"/><polygon fill="#181818" points="1245.25,187.7561,1249.25,197.7561,1253.25,187.7561,1249.25,191.7561" style="stroke:#181818;stroke-width:1.0;"/><line style="stroke:#181818;stroke-width:1.0;" x1="780.5" x2="780.5" y1="143.7561" y2="163.7561"/><polygon fill="#181818" points="776.5,153.7561,780.5,163.7561,784.5,153.7561,780.5,157.7561" style="stroke:#181818;stroke-width:1.0;"/><!--SRC=[TLCncvim3DtzApJcXYuTORYXTrk_ovAXgsD4h69ipXAzvjzN1fBGXB0WmtlIUmyX907X9xK8gGKB1yiT6rDHTAcdUAfDbVBfcxE3Z1bh4vCWP3fvCJ_cPs0P-j5vQ50i1Ixd8J7JCQ31s1I6eHPs6Jz7AdWdbEBh2uZ72Bipyei1A8W-wMlnDaAApt00KyDIoAIrL9SnfQw6d7wZa_eANlIMunU50Dx-GM0SRBRwaiVZaqwTWhN0m0YxcERfbTh4hD4WHFmhYyfvMF4mJI3HbXqo16IU7Nq7vOoY9kxzb9wfK6Bw0XiRw6tkolbj__5UBv15oxsQUQRJ_ee_8ZGbkECP-ZDZQ5ytPaqEMinAgA-FhfRdI-Ka9MRm6XmCcL8cEQzIMfBwdrUKi4zZQDPYh00FwAWb1q8zRcjILUmyDgCkevAd10xxjtszGbmZs8fXQd49xkFzr-4vCpRKccTTD9o09zsB6t_5ld4lrNnVzvcM86Nnq24E-WizEdxy6o3eoBor6e-UxaLNkNnFZ6xHV1EvlS2IBVlQt80JR3hy0m00]--></g></svg>