<?xml version="1.0" encoding="us-ascii" standalone="no"?><svg xmlns="http://www.w3.org/2000/svg" xmlns:xlink="http://www.w3.org/1999/xlink" contentStyleType="text/css" height="625px" preserveAspectRatio="none" style="width:2048px;height:625px;background:#FFFFFF;" version="1.1" viewBox="0 0 2048 625" width="2048px" zoomAndPan="magnify"><defs/><g><text fill="#000000" font-family="sans-serif" font-size="14" font-weight="bold" lengthAdjust="spacing" textLength="99.25" x="973.125" y="34.9659">Life of a Tasks</text><rect fill="#F1F1F1" height="36.3441" rx="12.5" ry="12.5" style="stroke:#181818;stroke-width:0.5;" width="71" x="1117.3438" y="51.0679"/><text fill="#000000" font-family="sans-serif" font-size="12" lengthAdjust="spacing" textLength="51" x="1127.3438" y="73.896">incoming</text><path d="M1215.8438,111.7311 L1215.8438,121.5841 L1195.8438,125.5841 L1215.8438,129.5841 L1215.8438,139.4371 A0,0 0 0 0 1215.8438,139.4371 L1447.8438,139.4371 A0,0 0 0 0 1447.8438,139.4371 L1447.8438,121.7311 L1437.8438,111.7311 L1215.8438,111.7311 A0,0 0 0 0 1215.8438,111.7311 " fill="#FEFFDD" style="stroke:#181818;stroke-width:0.5;"/><path d="M1437.8438,111.7311 L1437.8438,121.7311 L1447.8438,121.7311 L1437.8438,111.7311 " fill="#FEFFDD" style="stroke:#181818;stroke-width:0.5;"/><text fill="#000000" font-family="sans-serif" font-size="13" lengthAdjust="spacing" textLength="211" x="1221.8438" y="130.6281">Capture as much details as possible</text><rect fill="#F1F1F1" height="36.3441" rx="12.5" ry="12.5" style="stroke:#181818;stroke-width:0.5;" width="86" x="1109.8438" y="107.412"/><text fill="#000000" font-family="sans-serif" font-size="12" lengthAdjust="spacing" textLength="66" x="1119.8438" y="130.2401">org-capture</text><path d="M1049.3438,153.7561 L1049.3438,181.4622 L1101.3438,181.4622 L1101.3438,163.7561 L1091.3438,153.7561 L1049.3438,153.7561 " fill="#FEFFDD" style="stroke:#181818;stroke-width:0.5;"/><path d="M1091.3438,153.7561 L1091.3438,163.7561 L1101.3438,163.7561 L1091.3438,153.7561 " fill="#FEFFDD" style="stroke:#181818;stroke-width:0.5;"/><text fill="#000000" font-family="sans-serif" font-size="13" lengthAdjust="spacing" textLength="31" x="1055.3438" y="172.6532">tasks</text><path d="M1204.3438,153.7561 L1204.3438,181.4622 L1296.3438,181.4622 L1296.3438,163.7561 L1286.3438,153.7561 L1204.3438,153.7561 " fill="#FEFFDD" style="stroke:#181818;stroke-width:0.5;"/><path d="M1286.3438,153.7561 L1286.3438,163.7561 L1296.3438,163.7561 L1286.3438,153.7561 " fill="#FEFFDD" style="stroke:#181818;stroke-width:0.5;"/><text fill="#000000" font-family="sans-serif" font-size="13" lengthAdjust="spacing" textLength="71" x="1210.3438" y="172.6532">information</text><polygon fill="#F1F1F1" points="1113.3438,181.4622,1192.3438,181.4622,1204.3438,193.4622,1192.3438,205.4622,1113.3438,205.4622,1101.3438,193.4622,1113.3438,181.4622" style="stroke:#181818;stroke-width:0.5;"/><text fill="#000000" font-family="sans-serif" font-size="11" lengthAdjust="spacing" textLength="79" x="1113.3438" y="197.7301">require action?</text><text fill="#000000" font-family="sans-serif" font-size="11" lengthAdjust="spacing" textLength="17" x="1084.3438" y="190.2392">yes</text><text fill="#000000" font-family="sans-serif" font-size="11" lengthAdjust="spacing" textLength="14" x="1204.3438" y="190.2392">no</text><rect fill="#BF616A" height="36.3441" rx="12.5" ry="12.5" style="stroke:#181818;stroke-width:0.5;" width="96" x="405.9375" y="215.4622"/><text fill="#000000" font-family="sans-serif" font-size="12" lengthAdjust="spacing" textLength="76" x="415.9375" y="238.2903">mark it TODO</text><polygon fill="#F1F1F1" points="394.9375,286.8063,512.9375,286.8063,524.9375,298.8063,512.9375,310.8063,394.9375,310.8063,382.9375,298.8063,394.9375,286.8063" style="stroke:#181818;stroke-width:0.5;"/><text fill="#000000" font-family="sans-serif" font-size="11" lengthAdjust="spacing" textLength="118" x="394.9375" y="303.0742">more than one action?</text><text fill="#000000" font-family="sans-serif" font-size="11" lengthAdjust="spacing" textLength="17" x="365.9375" y="295.5833">yes</text><text fill="#000000" font-family="sans-serif" font-size="11" lengthAdjust="spacing" textLength="14" x="524.9375" y="295.5833">no</text><path d="M10,325.1253 L10,352.8313 A0,0 0 0 0 10,352.8313 L196,352.8313 A0,0 0 0 0 196,352.8313 L196,343.1253 L216,338.9783 L196,335.1253 L196,335.1253 L186,325.1253 L10,325.1253 A0,0 0 0 0 10,325.1253 " fill="#FEFFDD" style="stroke:#181818;stroke-width:0.5;"/><path d="M186,325.1253 L186,335.1253 L196,335.1253 L186,325.1253 " fill="#FEFFDD" style="stroke:#181818;stroke-width:0.5;"/><text fill="#000000" font-family="sans-serif" font-size="13" lengthAdjust="spacing" textLength="165" x="16" y="344.0223">will have separate sub tasks</text><rect fill="#F1F1F1" height="36.3441" rx="12.5" ry="12.5" style="stroke:#181818;stroke-width:0.5;" width="59" x="216" y="320.8063"/><text fill="#000000" font-family="sans-serif" font-size="12" lengthAdjust="spacing" textLength="39" x="226" y="343.6344">project</text><rect fill="#F1F1F1" height="36.3441" rx="12.5" ry="12.5" style="stroke:#181818;stroke-width:0.5;" width="142" x="611.375" y="320.8063"/><text fill="#000000" font-family="sans-serif" font-size="12" lengthAdjust="spacing" textLength="122" x="621.375" y="343.6344">determine next action</text><path d="M402.875,392.1504 L402.875,419.8564 L589.875,419.8564 L589.875,402.1504 L579.875,392.1504 L402.875,392.1504 " fill="#FEFFDD" style="stroke:#181818;stroke-width:0.5;"/><path d="M579.875,392.1504 L579.875,402.1504 L589.875,402.1504 L579.875,392.1504 " fill="#FEFFDD" style="stroke:#181818;stroke-width:0.5;"/><text fill="#000000" font-family="sans-serif" font-size="13" lengthAdjust="spacing" textLength="166" x="408.875" y="411.0474">prioritize this when possible</text><polygon fill="#F1F1F1" points="601.875,419.8564,762.875,419.8564,774.875,431.8564,762.875,443.8564,601.875,443.8564,589.875,431.8564,601.875,419.8564" style="stroke:#181818;stroke-width:0.5;"/><text fill="#000000" font-family="sans-serif" font-size="11" lengthAdjust="spacing" textLength="161" x="601.875" y="436.1244">will it takes less than 2 minutes</text><text fill="#000000" font-family="sans-serif" font-size="11" lengthAdjust="spacing" textLength="17" x="572.875" y="428.6334">yes</text><text fill="#000000" font-family="sans-serif" font-size="11" lengthAdjust="spacing" textLength="14" x="774.875" y="428.6334">no</text><rect fill="#A3BE8C" height="36.3441" rx="12.5" ry="12.5" style="stroke:#181818;stroke-width:0.5;" width="173" x="285" y="453.8564"/><text fill="#000000" font-family="sans-serif" font-size="12" lengthAdjust="spacing" textLength="153" x="295" y="476.6845">do it now and mark it DONE</text><polygon fill="#F1F1F1" points="927.25,453.8564,1059.25,453.8564,1071.25,465.8564,1059.25,477.8564,927.25,477.8564,915.25,465.8564,927.25,453.8564" style="stroke:#181818;stroke-width:0.5;"/><text fill="#000000" font-family="sans-serif" font-size="11" lengthAdjust="spacing" textLength="132" x="927.25" y="470.1244">can it be done by myself?</text><text fill="#000000" font-family="sans-serif" font-size="11" lengthAdjust="spacing" textLength="17" x="898.25" y="462.6334">yes</text><text fill="#000000" font-family="sans-serif" font-size="11" lengthAdjust="spacing" textLength="14" x="1071.25" y="462.6334">no</text><path d="M488,492.1755 L488,519.8815 A0,0 0 0 0 488,519.8815 L760,519.8815 A0,0 0 0 0 760,519.8815 L760,510.1755 L780,506.0285 L760,502.1755 L760,502.1755 L750,492.1755 L488,492.1755 A0,0 0 0 0 488,492.1755 " fill="#FEFFDD" style="stroke:#181818;stroke-width:0.5;"/><path d="M750,492.1755 L750,502.1755 L760,502.1755 L750,492.1755 " fill="#FEFFDD" style="stroke:#181818;stroke-width:0.5;"/><text fill="#000000" font-family="sans-serif" font-size="13" lengthAdjust="spacing" textLength="251" x="494" y="511.0725">do other high priority tasks when possible</text><rect fill="#F1F1F1" height="36.3441" rx="12.5" ry="12.5" style="stroke:#181818;stroke-width:0.5;" width="60" x="780" y="487.8564"/><text fill="#000000" font-family="sans-serif" font-size="12" lengthAdjust="spacing" textLength="40" x="790" y="510.6845">defer it</text><polygon fill="#F1F1F1" points="721.5,544.2005,898.5,544.2005,910.5,556.2005,898.5,568.2005,721.5,568.2005,709.5,556.2005,721.5,544.2005" style="stroke:#181818;stroke-width:0.5;"/><text fill="#000000" font-family="sans-serif" font-size="11" lengthAdjust="spacing" textLength="177" x="721.5" y="560.4685">should it be done at specific time?</text><text fill="#000000" font-family="sans-serif" font-size="11" lengthAdjust="spacing" textLength="17" x="692.5" y="552.9775">yes</text><text fill="#000000" font-family="sans-serif" font-size="11" lengthAdjust="spacing" textLength="14" x="910.5" y="552.9775">no</text><rect fill="#BF616A" height="36.3441" rx="12.5" ry="12.5" style="stroke:#181818;stroke-width:0.5;" width="173" x="613" y="578.2005"/><text fill="#000000" font-family="sans-serif" font-size="12" lengthAdjust="spacing" textLength="153" x="623" y="601.0286">schedule and mark it TODO</text><rect fill="#81A1C1" height="36.3441" rx="12.5" ry="12.5" style="stroke:#181818;stroke-width:0.5;" width="92" x="874.5" y="578.2005"/><text fill="#000000" font-family="sans-serif" font-size="12" lengthAdjust="spacing" textLength="72" x="884.5" y="601.0286">mark it NEXT</text><rect fill="#F1F1F1" height="36.3441" rx="12.5" ry="12.5" style="stroke:#181818;stroke-width:0.5;" width="69" x="1142" y="487.8564"/><text fill="#000000" font-family="sans-serif" font-size="12" lengthAdjust="spacing" textLength="49" x="1152" y="510.6845">delegate</text><polygon fill="#F1F1F1" points="1075.5,544.2005,1277.5,544.2005,1289.5,556.2005,1277.5,568.2005,1075.5,568.2005,1063.5,556.2005,1075.5,544.2005" style="stroke:#181818;stroke-width:0.5;"/><text fill="#000000" font-family="sans-serif" font-size="11" lengthAdjust="spacing" textLength="202" x="1075.5" y="560.4685">will I have to process after delegation?</text><text fill="#000000" font-family="sans-serif" font-size="11" lengthAdjust="spacing" textLength="17" x="1046.5" y="552.9775">yes</text><text fill="#000000" font-family="sans-serif" font-size="11" lengthAdjust="spacing" textLength="14" x="1289.5" y="552.9775">no</text><rect fill="#5E81AC" height="36.3441" rx="12.5" ry="12.5" style="stroke:#181818;stroke-width:0.5;" width="94" x="1006.5" y="578.2005"/><text fill="#000000" font-family="sans-serif" font-size="12" lengthAdjust="spacing" textLength="74" x="1016.5" y="601.0286">mark it PROG</text><rect fill="#8FBCBB" height="36.3441" rx="12.5" ry="12.5" style="stroke:#181818;stroke-width:0.5;" width="122" x="1238.5" y="578.2005"/><text fill="#000000" font-family="sans-serif" font-size="12" lengthAdjust="spacing" textLength="102" x="1248.5" y="601.0286">mark it DELEGATE</text><polygon fill="#F1F1F1" points="1810.75,215.4622,1892.75,215.4622,1904.75,227.4622,1892.75,239.4622,1810.75,239.4622,1798.75,227.4622,1810.75,215.4622" style="stroke:#181818;stroke-width:0.5;"/><text fill="#000000" font-family="sans-serif" font-size="11" lengthAdjust="spacing" textLength="82" x="1810.75" y="231.7301">worth keeping?</text><text fill="#000000" font-family="sans-serif" font-size="11" lengthAdjust="spacing" textLength="17" x="1781.75" y="224.2392">yes</text><text fill="#000000" font-family="sans-serif" font-size="11" lengthAdjust="spacing" textLength="14" x="1904.75" y="224.2392">no</text><polygon fill="#F1F1F1" points="1634.5,249.4622,1735.5,249.4622,1747.5,261.4622,1735.5,273.4622,1634.5,273.4622,1622.5,261.4622,1634.5,249.4622" style="stroke:#181818;stroke-width:0.5;"/><text fill="#000000" font-family="sans-serif" font-size="11" lengthAdjust="spacing" textLength="101" x="1634.5" y="265.7301">require action later</text><text fill="#000000" font-family="sans-serif" font-size="11" lengthAdjust="spacing" textLength="17" x="1605.5" y="258.2392">yes</text><text fill="#000000" font-family="sans-serif" font-size="11" lengthAdjust="spacing" textLength="14" x="1747.5" y="258.2392">no</text><path d="M1440.5,287.7812 L1440.5,315.4872 A0,0 0 0 0 1440.5,315.4872 L1513.5,315.4872 A0,0 0 0 0 1513.5,315.4872 L1513.5,305.7812 L1533.5,301.6342 L1513.5,297.7812 L1513.5,297.7812 L1503.5,287.7812 L1440.5,287.7812 A0,0 0 0 0 1440.5,287.7812 " fill="#FEFFDD" style="stroke:#181818;stroke-width:0.5;"/><path d="M1503.5,287.7812 L1503.5,297.7812 L1513.5,297.7812 L1503.5,287.7812 " fill="#FEFFDD" style="stroke:#181818;stroke-width:0.5;"/><text fill="#000000" font-family="sans-serif" font-size="13" lengthAdjust="spacing" textLength="52" x="1446.5" y="306.6782">ideas etc</text><rect fill="#81A1C1" height="36.3441" rx="12.5" ry="12.5" style="stroke:#181818;stroke-width:0.5;" width="92" x="1533.5" y="283.4622"/><text fill="#000000" font-family="sans-serif" font-size="12" lengthAdjust="spacing" textLength="72" x="1543.5" y="306.2903">mark it NEXT</text><rect fill="#88C0D0" height="36.3441" rx="12.5" ry="12.5" style="stroke:#181818;stroke-width:0.5;" width="75" x="1753" y="283.4622"/><text fill="#000000" font-family="sans-serif" font-size="12" lengthAdjust="spacing" textLength="55" x="1763" y="306.2903">reference</text><line style="stroke:#181818;stroke-width:1.5;" x1="1696" x2="1896" y1="354.8063" y2="354.8063"/><rect fill="#F1F1F1" height="36.3441" rx="12.5" ry="12.5" style="stroke:#181818;stroke-width:0.5;" width="73" x="1659.5" y="376.3063"/><text fill="#000000" font-family="sans-serif" font-size="12" lengthAdjust="spacing" textLength="53" x="1669.5" y="399.1344">org-roam</text><rect fill="#F1F1F1" height="36.3441" rx="12.5" ry="12.5" style="stroke:#181818;stroke-width:0.5;" width="82" x="1760.5" y="376.3063"/><text fill="#000000" font-family="sans-serif" font-size="12" lengthAdjust="spacing" textLength="62" x="1770.5" y="399.1344">org-journal</text><rect fill="#F1F1F1" height="36.3441" rx="12.5" ry="12.5" style="stroke:#181818;stroke-width:0.5;" width="51" x="1870.5" y="376.3063"/><text fill="#000000" font-family="sans-serif" font-size="12" lengthAdjust="spacing" textLength="31" x="1880.5" y="399.1344">notes</text><rect fill="#A3BE8C" height="69.0323" rx="12.5" ry="12.5" style="stroke:#181818;stroke-width:0.5;" width="106" x="1931.5" y="249.4622"/><text fill="#000000" font-family="sans-serif" font-size="12" lengthAdjust="spacing" textLength="54" x="1941.5" y="272.2903">archive it,</text><text fill="#000000" font-family="sans-serif" font-size="12" lengthAdjust="spacing" textLength="86" x="1941.5" y="288.6344">mark it DONE if</text><text fill="#000000" font-family="sans-serif" font-size="12" lengthAdjust="spacing" textLength="57" x="1941.5" y="304.9785">necessary</text><line style="stroke:#181818;stroke-width:1.0;" x1="1152.8438" x2="1152.8438" y1="87.412" y2="107.412"/><polygon fill="#181818" points="1148.8438,97.412,1152.8438,107.412,1156.8438,97.412,1152.8438,101.412" style="stroke:#181818;stroke-width:1.0;"/><line style="stroke:#181818;stroke-width:1.0;" x1="709.5" x2="699.5" y1="556.2005" y2="556.2005"/><line style="stroke:#181818;stroke-width:1.0;" x1="699.5" x2="699.5" y1="556.2005" y2="578.2005"/><polygon fill="#181818" points="695.5,568.2005,699.5,578.2005,703.5,568.2005,699.5,572.2005" style="stroke:#181818;stroke-width:1.0;"/><line style="stroke:#181818;stroke-width:1.0;" x1="910.5" x2="920.5" y1="556.2005" y2="556.2005"/><line style="stroke:#181818;stroke-width:1.0;" x1="920.5" x2="920.5" y1="556.2005" y2="578.2005"/><polygon fill="#181818" points="916.5,568.2005,920.5,578.2005,924.5,568.2005,920.5,572.2005" style="stroke:#181818;stroke-width:1.0;"/><line style="stroke:#181818;stroke-width:1.0;" x1="810" x2="810" y1="524.2005" y2="544.2005"/><polygon fill="#181818" points="806,534.2005,810,544.2005,814,534.2005,810,538.2005" style="stroke:#181818;stroke-width:1.0;"/><line style="stroke:#181818;stroke-width:1.0;" x1="1063.5" x2="1053.5" y1="556.2005" y2="556.2005"/><line style="stroke:#181818;stroke-width:1.0;" x1="1053.5" x2="1053.5" y1="556.2005" y2="578.2005"/><polygon fill="#181818" points="1049.5,568.2005,1053.5,578.2005,1057.5,568.2005,1053.5,572.2005" style="stroke:#181818;stroke-width:1.0;"/><line style="stroke:#181818;stroke-width:1.0;" x1="1289.5" x2="1299.5" y1="556.2005" y2="556.2005"/><line style="stroke:#181818;stroke-width:1.0;" x1="1299.5" x2="1299.5" y1="556.2005" y2="578.2005"/><polygon fill="#181818" points="1295.5,568.2005,1299.5,578.2005,1303.5,568.2005,1299.5,572.2005" style="stroke:#181818;stroke-width:1.0;"/><line style="stroke:#181818;stroke-width:1.0;" x1="1176.5" x2="1176.5" y1="524.2005" y2="544.2005"/><polygon fill="#181818" points="1172.5,534.2005,1176.5,544.2005,1180.5,534.2005,1176.5,538.2005" style="stroke:#181818;stroke-width:1.0;"/><line style="stroke:#181818;stroke-width:1.0;" x1="915.25" x2="810" y1="465.8564" y2="465.8564"/><line style="stroke:#181818;stroke-width:1.0;" x1="810" x2="810" y1="465.8564" y2="487.8564"/><polygon fill="#181818" points="806,477.8564,810,487.8564,814,477.8564,810,481.8564" style="stroke:#181818;stroke-width:1.0;"/><line style="stroke:#181818;stroke-width:1.0;" x1="1071.25" x2="1176.5" y1="465.8564" y2="465.8564"/><line style="stroke:#181818;stroke-width:1.0;" x1="1176.5" x2="1176.5" y1="465.8564" y2="487.8564"/><polygon fill="#181818" points="1172.5,477.8564,1176.5,487.8564,1180.5,477.8564,1176.5,481.8564" style="stroke:#181818;stroke-width:1.0;"/><line style="stroke:#181818;stroke-width:1.0;" x1="589.875" x2="371.5" y1="431.8564" y2="431.8564"/><line style="stroke:#181818;stroke-width:1.0;" x1="371.5" x2="371.5" y1="431.8564" y2="453.8564"/><polygon fill="#181818" points="367.5,443.8564,371.5,453.8564,375.5,443.8564,371.5,447.8564" style="stroke:#181818;stroke-width:1.0;"/><line style="stroke:#181818;stroke-width:1.0;" x1="774.875" x2="993.25" y1="431.8564" y2="431.8564"/><line style="stroke:#181818;stroke-width:1.0;" x1="993.25" x2="993.25" y1="431.8564" y2="453.8564"/><polygon fill="#181818" points="989.25,443.8564,993.25,453.8564,997.25,443.8564,993.25,447.8564" style="stroke:#181818;stroke-width:1.0;"/><line style="stroke:#181818;stroke-width:1.0;" x1="682.375" x2="682.375" y1="357.1504" y2="419.8564"/><polygon fill="#181818" points="678.375,409.8564,682.375,419.8564,686.375,409.8564,682.375,413.8564" style="stroke:#181818;stroke-width:1.0;"/><line style="stroke:#181818;stroke-width:1.0;" x1="382.9375" x2="245.5" y1="298.8063" y2="298.8063"/><line style="stroke:#181818;stroke-width:1.0;" x1="245.5" x2="245.5" y1="298.8063" y2="320.8063"/><polygon fill="#181818" points="241.5,310.8063,245.5,320.8063,249.5,310.8063,245.5,314.8063" style="stroke:#181818;stroke-width:1.0;"/><line style="stroke:#181818;stroke-width:1.0;" x1="524.9375" x2="682.375" y1="298.8063" y2="298.8063"/><line style="stroke:#181818;stroke-width:1.0;" x1="682.375" x2="682.375" y1="298.8063" y2="320.8063"/><polygon fill="#181818" points="678.375,310.8063,682.375,320.8063,686.375,310.8063,682.375,314.8063" style="stroke:#181818;stroke-width:1.0;"/><line style="stroke:#181818;stroke-width:1.0;" x1="453.9375" x2="453.9375" y1="251.8063" y2="286.8063"/><polygon fill="#181818" points="449.9375,276.8063,453.9375,286.8063,457.9375,276.8063,453.9375,280.8063" style="stroke:#181818;stroke-width:1.0;"/><line style="stroke:#181818;stroke-width:1.0;" x1="1696" x2="1696" y1="356.3063" y2="376.3063"/><polygon fill="#181818" points="1692,366.3063,1696,376.3063,1700,366.3063,1696,370.3063" style="stroke:#181818;stroke-width:1.0;"/><line style="stroke:#181818;stroke-width:1.0;" x1="1801.5" x2="1801.5" y1="356.3063" y2="376.3063"/><polygon fill="#181818" points="1797.5,366.3063,1801.5,376.3063,1805.5,366.3063,1801.5,370.3063" style="stroke:#181818;stroke-width:1.0;"/><line style="stroke:#181818;stroke-width:1.0;" x1="1896" x2="1896" y1="356.3063" y2="376.3063"/><polygon fill="#181818" points="1892,366.3063,1896,376.3063,1900,366.3063,1896,370.3063" style="stroke:#181818;stroke-width:1.0;"/><line style="stroke:#181818;stroke-width:1.0;" x1="1790.5" x2="1790.5" y1="319.8063" y2="354.8063"/><polygon fill="#181818" points="1786.5,344.8063,1790.5,354.8063,1794.5,344.8063,1790.5,348.8063" style="stroke:#181818;stroke-width:1.0;"/><line style="stroke:#181818;stroke-width:1.0;" x1="1622.5" x2="1579.5" y1="261.4622" y2="261.4622"/><line style="stroke:#181818;stroke-width:1.0;" x1="1579.5" x2="1579.5" y1="261.4622" y2="283.4622"/><polygon fill="#181818" points="1575.5,273.4622,1579.5,283.4622,1583.5,273.4622,1579.5,277.4622" style="stroke:#181818;stroke-width:1.0;"/><line style="stroke:#181818;stroke-width:1.0;" x1="1747.5" x2="1790.5" y1="261.4622" y2="261.4622"/><line style="stroke:#181818;stroke-width:1.0;" x1="1790.5" x2="1790.5" y1="261.4622" y2="283.4622"/><polygon fill="#181818" points="1786.5,273.4622,1790.5,283.4622,1794.5,273.4622,1790.5,277.4622" style="stroke:#181818;stroke-width:1.0;"/><line style="stroke:#181818;stroke-width:1.0;" x1="1798.75" x2="1685" y1="227.4622" y2="227.4622"/><line style="stroke:#181818;stroke-width:1.0;" x1="1685" x2="1685" y1="227.4622" y2="249.4622"/><polygon fill="#181818" points="1681,239.4622,1685,249.4622,1689,239.4622,1685,243.4622" style="stroke:#181818;stroke-width:1.0;"/><line style="stroke:#181818;stroke-width:1.0;" x1="1904.75" x2="1984.5" y1="227.4622" y2="227.4622"/><line style="stroke:#181818;stroke-width:1.0;" x1="1984.5" x2="1984.5" y1="227.4622" y2="249.4622"/><polygon fill="#181818" points="1980.5,239.4622,1984.5,249.4622,1988.5,239.4622,1984.5,243.4622" style="stroke:#181818;stroke-width:1.0;"/><line style="stroke:#81A1C1;stroke-width:1.0;" x1="1101.3438" x2="453.9375" y1="193.4622" y2="193.4622"/><line style="stroke:#81A1C1;stroke-width:1.0;" x1="453.9375" x2="453.9375" y1="193.4622" y2="215.4622"/><polygon fill="#81A1C1" points="449.9375,205.4622,453.9375,215.4622,457.9375,205.4622,453.9375,209.4622" style="stroke:#81A1C1;stroke-width:1.0;"/><line style="stroke:#A3BE8C;stroke-width:1.0;" x1="1204.3438" x2="1851.75" y1="193.4622" y2="193.4622"/><line style="stroke:#A3BE8C;stroke-width:1.0;" x1="1851.75" x2="1851.75" y1="193.4622" y2="215.4622"/><polygon fill="#A3BE8C" points="1847.75,205.4622,1851.75,215.4622,1855.75,205.4622,1851.75,209.4622" style="stroke:#A3BE8C;stroke-width:1.0;"/><line style="stroke:#181818;stroke-width:1.0;" x1="1152.8438" x2="1152.8438" y1="143.7561" y2="181.4622"/><polygon fill="#181818" points="1148.8438,171.4622,1152.8438,181.4622,1156.8438,171.4622,1152.8438,175.4622" style="stroke:#181818;stroke-width:1.0;"/><!--SRC=[ZLHTQzim57tNhxYGbnPMQ3PMGWmhOmrbK9enyZ0eUv3bwrYDB7cIl2xxzRkIRCT9dMr-iINVZtEEZgwNNY4yo1B1bC1XmztECRQKMfXQwct6biPkhmHlV6inOzfu12ktbMUVqXvm1tKhAYZGSwbSM3V6EPahPAWB22aCw94bN5ZyqSgG9Bmq-lOIV8KQBlReBcFCrTDiCUTpCVz-zI5k3Da-8WjVHqLdUNapl-7BcjiTI0-RzTqwOwbPRQYJhxW6ey-tN3RMFAFmsT0F59O-hbwaKb3ndmWE6suv_NDjVWxBZgBf0vL3kD2cAq-we2Kj4JJ-yXsCR50ajY3Wdk_GKMVd4kItG3cj9vIdW4UY03HM6Ykz_1sOIWSl8NRGFyKGo576ZB_BSI6MXGbjjNa1JYHw_UxMZwkiY-pud39Ak0LXfFWSeGZgvdkezmvLUJk1DwfGegM4RDWQGGeFmJ6KQA4YT_MqzadgILOdulUuN6LQLOoXSG-kGI5BAS3B6gSH7gpaH8L5IzTYh4llg_uPj9dI9rPBFXwC-RZwjZbVG1UoPEUAaNWAjsI-x8XfTCxdP4zlI38ZWdjuINw3BcNIyHt0zqWGnG3mozVrVVOFIcKkydp8k5izhEu_RbRP98yZYeSV_LTwZzlGtK_MJ7T_D6g8howDhICVTdJmKGXZVGKxn8Ocrckwh-SEA1BJJkZojqCREKqMI5CElM0JHZnLRhPOYElYUcd33K0jXbDqZQ8MXrCEWzOQNcTJ0gPWlkLI7sSyczPghlu_AG1rsPb3IYdi-CWcvre_HhWLbIG7Ilycxey72NG5D0PdShlFsA5kh1eNVm00]--></g></svg>